<?xml version="1.0" encoding="utf-8"?>
<!-- Generator: Adobe Illustrator 27.5.0, SVG Export Plug-In . SVG Version: 6.00 Build 0)  -->
<svg version="1.1" id="Layer_1" xmlns="http://www.w3.org/2000/svg" xmlns:xlink="http://www.w3.org/1999/xlink" x="0px" y="0px"
	 viewBox="0 0 480 480" style="enable-background:new 0 0 480 480;" xml:space="preserve">
<g>
	<g>
		<g>
			<path style="fill-rule:evenodd;clip-rule:evenodd;fill:#F0C869;" d="M140.689,351.222h148.502c6.25,0,11.363-5.113,11.363-11.363
				l0,0c0-6.25-5.113-11.363-11.363-11.363h-21.477c-6.25,0-11.363-5.113-11.363-11.363c0-6.25,5.113-11.363,11.363-11.363h27.06
				c6.25,0,11.363-5.113,11.363-11.363l0,0c0-6.25-5.113-11.363-11.363-11.363h-33.503c-6.25,0-11.363-5.113-11.363-11.363
				c0-6.25,5.113-11.363,11.363-11.363h3.066c6.25,0,11.363-5.113,11.363-11.363l0,0c0-6.25-5.113-11.363-11.363-11.363h-80.794
				c-6.25,0-11.363,5.113-11.363,11.363l0,0c0,6.25,5.113,11.363,11.363,11.363h19.063c6.25,0,11.363,5.113,11.363,11.363
				c0,6.25-5.113,11.363-11.363,11.363h-73.55c-6.25,0-11.363,5.113-11.363,11.363l0,0c0,6.25,5.113,11.363,11.363,11.363h31.713
				c6.249,0,11.363,5.113,11.363,11.363c0,6.25-5.113,11.363-11.363,11.363h-20.081c-6.25,0-11.363,5.113-11.363,11.363l0,0
				C129.325,346.108,134.439,351.222,140.689,351.222z"/>
			<path style="fill-rule:evenodd;clip-rule:evenodd;fill:#F0C869;" d="M324.708,351.222h2.719c6.25,0,11.363-5.113,11.363-11.363
				v-0.001c0-6.25-5.113-11.363-11.363-11.363h-2.719c-6.25,0-11.363,5.113-11.363,11.363v0.001
				C313.345,346.109,318.458,351.222,324.708,351.222z"/>
			<path style="fill-rule:evenodd;clip-rule:evenodd;fill:#F0C869;" d="M166.638,388.098h15.267c6.25,0,11.363-5.113,11.363-11.363
				v0c0-6.249-5.113-11.363-11.363-11.363h-15.267c-6.25,0-11.363,5.114-11.363,11.363v0
				C155.275,382.985,160.388,388.098,166.638,388.098z"/>
			<path style="fill-rule:evenodd;clip-rule:evenodd;fill:#F0C869;" d="M280.72,388.098h-29.053c-6.25,0-11.363-5.113-11.363-11.363
				v0c0-6.249,5.113-11.363,11.363-11.363h29.053c6.25,0,11.363,5.114,11.363,11.363v0
				C292.083,382.985,286.97,388.098,280.72,388.098z"/>
			<path style="fill-rule:evenodd;clip-rule:evenodd;fill:#F0C869;" d="M109.14,351.693h2.719c6.25,0,11.363-5.113,11.363-11.363v0
				c0-6.25-5.113-11.363-11.363-11.363h-2.719c-6.25,0-11.363,5.113-11.363,11.363v0C97.777,346.58,102.89,351.693,109.14,351.693z"
				/>
		</g>
		<g>
			<path style="fill-rule:evenodd;clip-rule:evenodd;fill:#F0C869;" d="M409.783,279.495H262.041
				c-6.218,0-11.305-5.087-11.305-11.305l0,0c0-6.218,5.087-11.305,11.305-11.305h21.366c6.218,0,11.305-5.087,11.305-11.305
				c0-6.218-5.087-11.305-11.305-11.305h-26.921c-6.218,0-11.305-5.087-11.305-11.305l0,0c0-6.218,5.087-11.305,11.305-11.305
				h33.331c6.218,0,11.305-5.087,11.305-11.305c0-6.218-5.087-11.305-11.305-11.305h-3.051c-6.218,0-11.305-5.087-11.305-11.305l0,0
				c0-6.218,5.087-11.305,11.305-11.305h80.382c6.218,0,11.305,5.087,11.305,11.305l0,0c0,6.218-5.087,11.305-11.305,11.305h-18.966
				c-6.218,0-11.305,5.087-11.305,11.305c0,6.218,5.087,11.305,11.305,11.305h73.174c6.218,0,11.305,5.087,11.305,11.305l0,0
				c0,6.218-5.087,11.305-11.305,11.305h-31.551c-6.217,0-11.305,5.087-11.305,11.305c0,6.218,5.087,11.305,11.305,11.305h19.978
				c6.218,0,11.305,5.087,11.305,11.305l0,0C421.089,274.408,416.001,279.495,409.783,279.495z"/>
			<path style="fill-rule:evenodd;clip-rule:evenodd;fill:#F0C869;" d="M226.704,279.495H224c-6.218,0-11.305-5.087-11.305-11.305
				l0,0c0-6.218,5.087-11.305,11.305-11.305h2.705c6.218,0,11.305,5.087,11.305,11.305l0,0
				C238.009,274.408,232.922,279.495,226.704,279.495z"/>
			<path style="fill-rule:evenodd;clip-rule:evenodd;fill:#F0C869;" d="M383.966,316.183h-15.189
				c-6.218,0-11.305-5.087-11.305-11.305v0c0-6.218,5.087-11.305,11.305-11.305h15.189c6.218,0,11.305,5.087,11.305,11.305v0
				C395.271,311.096,390.184,316.183,383.966,316.183z"/>
			<path style="fill-rule:evenodd;clip-rule:evenodd;fill:#F0C869;" d="M270.468,316.183h28.905c6.217,0,11.305-5.087,11.305-11.305
				v0c0-6.218-5.087-11.305-11.305-11.305h-28.905c-6.218,0-11.305,5.087-11.305,11.305v0
				C259.163,311.096,264.25,316.183,270.468,316.183z"/>
			<path style="fill-rule:evenodd;clip-rule:evenodd;fill:#F0C869;" d="M441.171,279.964h-2.705
				c-6.218,0-11.305-5.087-11.305-11.305v0c0-6.218,5.087-11.305,11.305-11.305h2.705c6.218,0,11.305,5.087,11.305,11.305v0
				C452.476,274.877,447.389,279.964,441.171,279.964z"/>
		</g>
		<g>
			<path style="fill-rule:evenodd;clip-rule:evenodd;fill:#F0C869;" d="M241.538,148.394H115.183c-5.318,0-9.669,4.351-9.669,9.668
				l0,0c0,5.318,4.351,9.668,9.669,9.668h18.273c5.318,0,9.669,4.351,9.669,9.668c0,5.318-4.351,9.668-9.669,9.668h-23.024
				c-5.318,0-9.669,4.351-9.669,9.669l0,0c0,5.318,4.351,9.668,9.669,9.668h28.506c5.318,0,9.668,4.351,9.668,9.669
				c0,5.318-4.351,9.668-9.668,9.668h-2.609c-5.318,0-9.668,4.351-9.668,9.668l0,0c0,5.318,4.351,9.668,9.668,9.668h68.745
				c5.318,0,9.669-4.351,9.669-9.668l0,0c0-5.318-4.351-9.668-9.669-9.668h-16.22c-5.318,0-9.668-4.351-9.668-9.668
				c0-5.318,4.351-9.669,9.668-9.669h62.581c5.318,0,9.668-4.351,9.668-9.668l0,0c0-5.318-4.351-9.669-9.668-9.669h-26.983
				c-5.318,0-9.668-4.351-9.668-9.668c0-5.318,4.351-9.668,9.668-9.668h17.086c5.318,0,9.668-4.351,9.668-9.668l0,0
				C251.206,152.744,246.856,148.394,241.538,148.394z"/>
			<path style="fill-rule:evenodd;clip-rule:evenodd;fill:#F0C869;" d="M84.963,148.394H82.65c-5.318,0-9.668,4.351-9.668,9.668l0,0
				c0,5.318,4.351,9.668,9.668,9.668h2.313c5.318,0,9.668-4.351,9.668-9.668l0,0C94.631,152.744,90.28,148.394,84.963,148.394z"/>
			<path style="fill-rule:evenodd;clip-rule:evenodd;fill:#F0C869;" d="M219.458,117.017h-12.99c-5.318,0-9.668,4.351-9.668,9.668
				l0,0c0,5.318,4.351,9.668,9.668,9.668h12.99c5.318,0,9.668-4.351,9.668-9.668l0,0
				C229.126,121.368,224.776,117.017,219.458,117.017z"/>
			<path style="fill-rule:evenodd;clip-rule:evenodd;fill:#F0C869;" d="M122.39,117.017h24.72c5.318,0,9.668,4.351,9.668,9.668l0,0
				c0,5.318-4.351,9.668-9.668,9.668h-24.72c-5.318,0-9.668-4.351-9.668-9.668l0,0C112.722,121.368,117.073,117.017,122.39,117.017z
				"/>
			<path style="fill-rule:evenodd;clip-rule:evenodd;fill:#F0C869;" d="M268.381,147.993h-2.313c-5.318,0-9.668,4.351-9.668,9.668
				l0,0c0,5.318,4.351,9.668,9.668,9.668h2.313c5.318,0,9.668-4.351,9.668-9.668l0,0
				C278.05,152.343,273.699,147.993,268.381,147.993z"/>
		</g>
		<path style="fill-rule:evenodd;clip-rule:evenodd;fill:#FCDF8F;" d="M201.006,264.39c15.116,0,27.369,12.254,27.369,27.369
			c0,4.569-1.121,8.877-3.101,12.663h-37.148h-11.388h-40.95h-14.223h-30.18c-1.224-2.887-1.9-6.063-1.9-9.395
			c0-13.311,10.79-24.102,24.101-24.102c0.532,0,1.06,0.019,1.583,0.053c4.373-17.852,20.476-31.099,39.676-31.099
			c17.23,0,31.967,10.667,37.97,25.757C195.402,264.827,198.153,264.39,201.006,264.39z"/>
		<path style="fill-rule:evenodd;clip-rule:evenodd;fill:#FFD9A1;" d="M336.903,226.305c16.071,0,29.1,13.029,29.1,29.1
			c0,4.858-1.193,9.438-3.298,13.464h-39.497h-12.107h-43.539H252.44h-32.088c-1.301-3.07-2.02-6.446-2.02-9.99
			c0-14.152,11.473-25.625,25.625-25.625c0.566,0,1.126,0.02,1.683,0.056c4.649-18.98,21.771-33.065,42.184-33.065
			c18.319,0,33.988,11.342,40.371,27.386C330.944,226.77,333.869,226.305,336.903,226.305z"/>
		<path style="fill-rule:evenodd;clip-rule:evenodd;fill:#F59042;" d="M364.637,267.252c16.072,0,29.1,13.028,29.1,29.1
			c0,4.858-1.193,9.438-3.298,13.464h-39.497h-12.107h-43.539h-15.122h-32.088c-1.301-3.07-2.02-6.446-2.02-9.99
			c0-14.152,11.473-25.625,25.625-25.625c0.566,0,1.126,0.02,1.683,0.056c4.649-18.981,21.771-33.065,42.184-33.065
			c18.319,0,33.988,11.342,40.371,27.386C358.678,267.717,361.604,267.252,364.637,267.252z"/>
		<path style="fill-rule:evenodd;clip-rule:evenodd;fill:#FCDF8F;" d="M258.632,210.802c16.071,0,29.1,13.028,29.1,29.1
			c0,4.858-1.193,9.438-3.298,13.464h-39.497H232.83H189.29h-15.122H142.08c-1.301-3.07-2.02-6.446-2.02-9.99
			c0-14.152,11.473-25.625,25.625-25.625c0.566,0,1.126,0.02,1.683,0.056c4.649-18.981,21.771-33.066,42.184-33.066
			c18.319,0,33.988,11.342,40.371,27.386C252.673,211.267,255.598,210.802,258.632,210.802z"/>
		<g>
			<g>
				<path style="fill-rule:evenodd;clip-rule:evenodd;fill:#EB573B;" d="M220.624,218.251c-21.315,0-40.613-8.641-54.583-22.61
					c-13.969-13.969-22.61-33.268-22.61-54.583c0-2.902,0.174-5.838,0.51-8.795c0.336-2.948,0.838-5.846,1.496-8.685l14.562,3.333
					c-0.529,2.283-0.934,4.616-1.204,6.989c-0.259,2.278-0.392,4.665-0.392,7.158c0,17.182,6.964,32.738,18.224,43.997
					c11.259,11.26,26.815,18.224,43.997,18.224V218.251z"/>
				<path style="fill-rule:evenodd;clip-rule:evenodd;fill:#EB573B;" d="M220.624,203.28h41.393v63.563
					c0,3.623-2.964,6.587-6.587,6.587H227.21c-3.623,0-6.587-2.964-6.587-6.587V203.28z"/>
				<path style="fill-rule:evenodd;clip-rule:evenodd;fill:#F9B234;" d="M234.961,135.654h12.717
					c9.019,0,16.398,7.379,16.398,16.398v27.689c0,9.019-7.379,16.398-16.398,16.398h-12.717c-9.019,0-16.398-7.379-16.398-16.398
					v-27.689C218.564,143.033,225.942,135.654,234.961,135.654z"/>
				<path style="fill-rule:evenodd;clip-rule:evenodd;fill:#CF6E19;" d="M238.513,174.393l2.807-12.576v-26.163h-6.358
					c-9.019,0-16.398,7.379-16.398,16.398v27.688c0,9.019,7.379,16.398,16.398,16.398h6.358v-21.746H238.513z"/>
				<path style="fill-rule:evenodd;clip-rule:evenodd;fill:#1A1A1A;" d="M232.124,159.333c0.255-0.785,1.098-1.214,1.883-0.959
					c0.785,0.255,1.214,1.098,0.959,1.883c-0.482,1.472-1.419,2.736-2.643,3.623c-1.197,0.867-2.667,1.379-4.253,1.379
					c-1.586,0-3.056-0.512-4.253-1.379c-1.225-0.887-2.162-2.151-2.643-3.623c-0.255-0.785,0.174-1.628,0.959-1.883
					c0.785-0.255,1.628,0.174,1.883,0.959c0.282,0.861,0.833,1.603,1.555,2.126c0.7,0.507,1.563,0.806,2.498,0.806
					c0.936,0,1.799-0.299,2.499-0.806C231.291,160.936,231.843,160.194,232.124,159.333z"/>
				<path style="fill-rule:evenodd;clip-rule:evenodd;fill:#1A1A1A;" d="M223.917,174.528c-0.255-0.785,0.174-1.628,0.959-1.883
					c0.785-0.255,1.628,0.174,1.883,0.959c1.014,3.1,2.994,5.766,5.584,7.644c2.52,1.826,5.621,2.903,8.977,2.903v2.994
					c-4.006,0-7.714-1.289-10.731-3.476C227.496,181.428,225.131,178.239,223.917,174.528z"/>
				<path style="fill-rule:evenodd;clip-rule:evenodd;fill:#1A1A1A;" d="M250.516,159.333c-0.255-0.785-1.098-1.214-1.883-0.959
					c-0.785,0.255-1.214,1.098-0.959,1.883c0.482,1.472,1.419,2.736,2.643,3.623c1.197,0.867,2.667,1.379,4.253,1.379
					c1.586,0,3.056-0.512,4.252-1.379c1.225-0.887,2.162-2.151,2.643-3.623c0.255-0.785-0.174-1.628-0.959-1.883
					c-0.785-0.255-1.628,0.174-1.883,0.959c-0.281,0.861-0.833,1.603-1.555,2.126c-0.7,0.507-1.563,0.806-2.498,0.806
					s-1.799-0.299-2.499-0.806C251.349,160.936,250.798,160.194,250.516,159.333z"/>
				<path style="fill-rule:evenodd;clip-rule:evenodd;fill:#092B0B;" d="M258.723,174.528c0.255-0.785-0.174-1.628-0.959-1.883
					c-0.785-0.255-1.628,0.174-1.883,0.959c-1.014,3.1-2.994,5.766-5.584,7.644c-2.52,1.826-5.621,2.903-8.977,2.903v2.994
					c4.006,0,7.714-1.289,10.731-3.476C255.144,181.428,257.509,178.239,258.723,174.528z"/>
				<path style="fill-rule:evenodd;clip-rule:evenodd;fill:#F9B234;" d="M218.564,178.171c-4.691,0-8.494-3.803-8.494-8.494
					c0-4.691,3.803-8.494,8.494-8.494V178.171z"/>
				<path style="fill-rule:evenodd;clip-rule:evenodd;fill:#EA4E1B;" d="M264.076,178.171c4.691,0,8.494-3.803,8.494-8.494
					c0-4.691-3.803-8.494-8.494-8.494V178.171z"/>
				<path style="fill-rule:evenodd;clip-rule:evenodd;fill:#1A1A1A;" d="M263.864,149.419l-7.46-6.616c0,0-1.797,4.941-5.988,7.186
					c-4.192,2.246-12.875,2.695-12.875,2.695s5.09-2.994,6.887-4.791c1.797-1.797,3.294-5.689,3.294-5.689
					s-8.683,11.528-21.708,11.378c-13.025-0.15-20.511-6.737-19.313-13.325c1.198-6.587,5.39-9.282,5.39-9.282
					s-3.893,10.63,2.395,9.132c6.288-1.497,1.723-21.109,26.836-20.66c25.114,0.449,21.671,14.522,21.671,14.522
					S272.123,138.312,263.864,149.419z"/>
				<polygon style="fill-rule:evenodd;clip-rule:evenodd;fill:#CF6E19;" points="241.32,196.138 237.165,196.138 237.165,203.064 
					241.32,205.609 				"/>
				<polygon style="fill-rule:evenodd;clip-rule:evenodd;fill:#F9B234;" points="245.475,196.138 241.32,196.138 241.32,205.609 
					245.475,203.064 				"/>
				<polygon style="fill-rule:evenodd;clip-rule:evenodd;fill:#1A1A1A;" points="237.354,205.423 245.286,205.423 244.107,210.662 
					238.533,210.662 				"/>
				<polygon style="fill-rule:evenodd;clip-rule:evenodd;fill:#FFFFFF;" points="237.165,203.064 234.17,209.202 241.32,205.609 
									"/>
				<polygon style="fill-rule:evenodd;clip-rule:evenodd;fill:#FFFFFF;" points="245.475,203.064 248.469,209.202 241.32,205.609 
									"/>
				<polygon style="fill-rule:evenodd;clip-rule:evenodd;fill:#1A1A1A;" points="238.533,210.662 233.42,258.048 241.32,264.785 
					241.32,210.662 				"/>
				<polygon style="fill-rule:evenodd;clip-rule:evenodd;fill:#1A1A1A;" points="244.107,210.662 249.22,258.048 241.32,264.785 
					241.32,210.662 				"/>
				<rect x="227.21" y="273.429" style="fill-rule:evenodd;clip-rule:evenodd;fill:#CF6E19;" width="29.002" height="3.596"/>
				<rect x="240.16" y="273.429" style="fill-rule:evenodd;clip-rule:evenodd;fill:#1A1A1A;" width="3.101" height="3.596"/>
				<rect x="229.06" y="273.429" style="fill-rule:evenodd;clip-rule:evenodd;fill:#1A1A1A;" width="1.551" height="3.596"/>
				<rect x="233.354" y="273.429" style="fill-rule:evenodd;clip-rule:evenodd;fill:#1A1A1A;" width="1.55" height="3.596"/>
				<rect x="248.636" y="273.429" style="fill-rule:evenodd;clip-rule:evenodd;fill:#1A1A1A;" width="1.55" height="3.596"/>
				<rect x="252.929" y="273.429" style="fill-rule:evenodd;clip-rule:evenodd;fill:#1A1A1A;" width="1.55" height="3.596"/>
				<path style="fill-rule:evenodd;clip-rule:evenodd;fill:#1A1A1A;" d="M156.342,121.482l-12.922-0.319
					c-4.174-0.103-7.699,3.227-7.833,7.401l-0.579,18.082c-0.133,4.174,3.173,7.673,7.347,7.775l12.922,0.319
					c4.175,0.103,7.699-3.227,7.833-7.401l0.579-18.082C163.823,125.084,160.517,121.585,156.342,121.482z"/>
				<path style="fill-rule:evenodd;clip-rule:evenodd;fill:#EB573B;" d="M262.016,218.251c21.315,0,40.613-8.641,54.583-22.61
					c13.969-13.969,22.61-33.268,22.61-54.583c0-2.902-0.173-5.838-0.51-8.795c-0.336-2.948-0.838-5.846-1.496-8.685l-14.562,3.333
					c0.53,2.283,0.933,4.616,1.204,6.989c0.259,2.278,0.393,4.665,0.393,7.158c0,17.182-6.964,32.738-18.224,43.997
					c-11.259,11.26-26.815,18.224-43.997,18.224V218.251z"/>
				<path style="fill-rule:evenodd;clip-rule:evenodd;fill:#1A1A1A;" d="M326.298,121.482l12.923-0.319
					c4.175-0.103,7.699,3.227,7.833,7.401l0.579,18.082c0.134,4.174-3.172,7.673-7.347,7.775l-12.923,0.319
					c-4.174,0.103-7.699-3.227-7.833-7.401l-0.579-18.082C318.817,125.084,322.124,121.585,326.298,121.482z"/>
				<path style="fill-rule:evenodd;clip-rule:evenodd;fill:#1A1A1A;" d="M144.74,163.779c1.302,1.303,4.067,1.303,5.37,0
					c0.84-0.84,1.109-2.18,1.329-3.051c0.143-0.567,0.269-0.968,0.327-1.587c0.054-0.578,0.128-1.019,0.21-1.587l-0.26-29.901
					c-0.089-0.691-0.085-0.916-0.08-1.587l-0.858-18.917c0.002-0.585,0.043-1.02-0.021-1.587c-0.349-3.079,0.842-3.732,3.111-6.347
					c0.44-0.507,0.413-0.567,1.121-1.336c2.384-2.588,4.27-6.239,4.586-9.525c0.235-2.441,0.024-5.391-0.599-7.811
					c-0.525-2.036-0.502-2.477-1.49-4.76c-1.774-4.1-5.13-9.75-10.06-9.743c-1.07,0.001-1.923,0.162-2.929,0.672
					c-4.96,2.509-7.91,9.958-8.864,14.929c-0.832,4.339-0.697,8.666,1.646,12.571c1.391,2.318,3.044,4.07,5.002,6.346
					c2.557,2.972,1.775,3.457,1.788,6.346c0.014,3.049-0.371,6.53-0.362,9.397c0.007,2.243-0.486,7.232-0.497,9.52
					c-0.01,2.169-0.251,4.175-0.238,6.347l-0.37,22.09C142.695,156.699,143.269,162.308,144.74,163.779z"/>
				<path style="fill-rule:evenodd;clip-rule:evenodd;fill:#1A1A1A;" d="M332.872,163.779c1.303,1.303,4.067,1.303,5.37,0
					c0.84-0.84,1.11-2.18,1.329-3.051c0.143-0.567,0.269-0.969,0.327-1.587c0.054-0.578,0.128-1.019,0.211-1.587l-0.26-29.901
					c-0.089-0.691-0.085-0.916-0.08-1.587l-0.858-18.917c0.002-0.585,0.043-1.02-0.021-1.587c-0.076-0.672-0.079-1.229-0.013-1.715
					c1.157-1.652,3.773-2.078,5.764-5.102c2.134-3.242,1.339-8.224,1.349-12.277l-0.319-9.074c-0.009-0.49-0.08-0.607-0.109-1.068
					c-0.301-4.735,0.749-4.095-2.297-4.486c-0.301-0.038-1.798-0.14-2.029-0.105c-0.373,0.645-0.16,7.968-0.16,8.86v6.726
					c0,1.148,0.256,1.613-0.587,2.455c-0.769,0.769-2.164,0.612-2.989-0.213c-0.604-0.604-0.374-3.232-0.374-4.484
					c0-1.786,0.103-12.66-0.053-13.451c-0.901-0.178-1.219-0.157-2.135-0.16c-0.671-0.003-1.511,0.037-2.135,0.16
					c0.18,0.91,0.053,3.277,0.053,4.377v11.102c0,0.787,0.388,2.929-1.868,3.034c-0.441,0.021-1.301-0.279-1.708-0.686
					c-0.567-0.567-0.374-1.489-0.374-2.135c0.001-2.168,0.105-14.785-0.054-15.586c-0.612,0.189-1.16,0.205-1.815,0.271
					c-0.693,0.07-1.286,0.067-1.922,0.263c-0.112,0.57-0.055,1.101-0.051,1.708c0.004,0.685-0.109,1.052-0.113,1.708l-0.112,5.978
					c-0.035,0.394-0.084,0.436-0.1,0.854c-0.046,1.166,0.03,2.239,0.007,3.416c-0.013,0.65-0.116,1.013-0.112,1.708
					c0.004,0.622,0.001,1.087,0.001,1.708c0,1.191,0,2.225,0,3.416c0,2.408,0.275,4.919,2.188,6.832
					c2.485,2.485,2.951,2.097,5.231,4.377c0.101,0.1,0.182,0.219,0.249,0.353c0.009,0.686-0.107,1.448-0.102,2.575
					c0.014,3.049-0.371,6.53-0.362,9.397c0.007,2.243-0.486,7.232-0.496,9.52c-0.01,2.169-0.251,4.175-0.238,6.347l-0.37,22.09
					C330.827,156.699,331.401,162.308,332.872,163.779z"/>
				<path style="fill-rule:evenodd;clip-rule:evenodd;fill:#F9B234;" d="M156.425,117.539L156.425,117.539
					c2.771,0.078,4.974,2.409,4.896,5.18l-0.542,19.299c-0.078,2.771-2.409,4.974-5.18,4.896l0,0
					c-2.771-0.078-4.974-2.409-4.896-5.179l0.543-19.299C151.323,119.664,153.654,117.461,156.425,117.539z"/>
				<path style="fill-rule:evenodd;clip-rule:evenodd;fill:#CF6E19;" d="M151.245,125.31L151.245,125.31
					c-0.089,2.336-2.074,4.207-4.411,4.159l-11.438-0.237c-2.337-0.048-4.176-1.999-4.087-4.334v0
					c0.089-2.336,2.074-4.207,4.411-4.158l11.438,0.237C149.495,121.024,151.334,122.974,151.245,125.31z"/>
				<path style="fill-rule:evenodd;clip-rule:evenodd;fill:#F9B234;" d="M150.921,133.803L150.921,133.803
					c-0.089,2.336-2.074,4.207-4.411,4.159l-11.438-0.237c-2.337-0.048-4.176-1.998-4.087-4.334v0
					c0.089-2.336,2.074-4.207,4.411-4.158l11.438,0.237C149.171,129.517,151.01,131.467,150.921,133.803z"/>
				<path style="fill-rule:evenodd;clip-rule:evenodd;fill:#CF6E19;" d="M150.597,142.296L150.597,142.296
					c-0.089,2.336-2.074,4.207-4.411,4.159l-11.438-0.237c-2.337-0.048-4.176-1.999-4.087-4.334v0
					c0.089-2.336,2.074-4.207,4.411-4.158l11.438,0.237C148.847,138.01,150.686,139.96,150.597,142.296z"/>
				<path style="fill-rule:evenodd;clip-rule:evenodd;fill:#F9B234;" d="M150.273,150.788L150.273,150.788
					c-0.089,2.336-2.074,4.207-4.411,4.159l-11.438-0.237c-2.338-0.048-4.176-1.998-4.087-4.334v0
					c0.089-2.336,2.074-4.207,4.411-4.158l11.438,0.237C148.523,146.502,150.362,148.453,150.273,150.788z"/>
				<path style="fill-rule:evenodd;clip-rule:evenodd;fill:#F9B234;" d="M326.215,117.539L326.215,117.539
					c-2.771,0.078-4.974,2.409-4.897,5.18l0.543,19.299c0.078,2.771,2.409,4.974,5.18,4.896l0,0
					c2.771-0.078,4.974-2.409,4.896-5.179l-0.542-19.299C331.317,119.664,328.986,117.461,326.215,117.539z"/>
				<path style="fill-rule:evenodd;clip-rule:evenodd;fill:#CF6E19;" d="M331.395,125.31L331.395,125.31
					c0.089,2.336,2.074,4.207,4.411,4.159l11.438-0.237c2.337-0.048,4.176-1.999,4.087-4.334v0
					c-0.089-2.336-2.074-4.207-4.411-4.158l-11.438,0.237C333.145,121.024,331.306,122.974,331.395,125.31z"/>
				<path style="fill-rule:evenodd;clip-rule:evenodd;fill:#F9B234;" d="M331.719,133.803L331.719,133.803
					c0.089,2.336,2.074,4.207,4.411,4.159l11.438-0.237c2.337-0.048,4.177-1.998,4.087-4.334v0
					c-0.089-2.336-2.074-4.207-4.411-4.158l-11.438,0.237C333.469,129.517,331.63,131.467,331.719,133.803z"/>
				<path style="fill-rule:evenodd;clip-rule:evenodd;fill:#CF6E19;" d="M332.043,142.296L332.043,142.296
					c0.089,2.336,2.074,4.207,4.411,4.159l11.438-0.237c2.337-0.048,4.176-1.999,4.087-4.334v0
					c-0.089-2.336-2.074-4.207-4.411-4.158l-11.438,0.237C333.793,138.01,331.954,139.96,332.043,142.296z"/>
				<path style="fill-rule:evenodd;clip-rule:evenodd;fill:#F9B234;" d="M332.367,150.788L332.367,150.788
					c0.089,2.336,2.074,4.207,4.411,4.159l11.438-0.237c2.337-0.048,4.176-1.998,4.087-4.334v0
					c-0.089-2.336-2.074-4.207-4.411-4.158l-11.438,0.237C334.117,146.502,332.278,148.453,332.367,150.788z"/>
			</g>
			<path style="fill-rule:evenodd;clip-rule:evenodd;fill:#1A1A1A;" d="M126.799,265.849h227.989c2.567,0,4.667,2.1,4.667,4.667l0,0
				c0,2.566-2.1,4.667-4.667,4.667h-20.88c-2.567,0-4.666,2.1-4.666,4.666c0,2.567,2.1,4.666,4.666,4.666h16.619
				c2.566,0,4.666,2.1,4.666,4.667l0,0c0,2.567-2.1,4.667-4.666,4.667h-90.313c-2.564,0-21.528,0-24.092,0h-87.096
				c-2.566,0-4.667-2.1-4.667-4.667l0,0c0-2.567,2.1-4.667,4.667-4.667h27.617c2.567,0,4.667-2.1,4.667-4.666
				c0-2.567-2.1-4.666-4.667-4.666h-49.843c-2.566,0-4.667-2.1-4.667-4.667l0,0C122.132,267.949,124.232,265.849,126.799,265.849z"
				/>
			<g>
				<path style="fill-rule:evenodd;clip-rule:evenodd;fill:#E6E6E6;" d="M187.782,219.054h17.409v46.795h-11.59
					c-3.201,0-5.819-2.618-5.819-5.819V219.054z"/>
				<path style="fill-rule:evenodd;clip-rule:evenodd;fill:#F9B234;" d="M190.498,226.771h14.693v33.584h-9.782
					c-2.701,0-4.911-2.21-4.911-4.911V226.771z"/>
				<path style="fill-rule:evenodd;clip-rule:evenodd;fill:#B3B3B3;" d="M205.191,260.355v2.716h-11.73
					c-1.63,0-2.963-1.333-2.963-2.963v-4.664c0,2.701,2.21,4.911,4.911,4.911H205.191z"/>
				<path style="fill-rule:evenodd;clip-rule:evenodd;fill:#E6E6E6;" d="M187.782,229.209h-8.396v15.804
					c0,1.152,0.473,2.201,1.235,2.963c0.762,0.762,1.811,1.235,2.962,1.235h4.198v4.939h-4.198c-2.515,0-4.8-1.027-6.454-2.682
					c-1.655-1.655-2.682-3.94-2.682-6.455v-16.267c0-1.234,0.503-2.353,1.313-3.163c0.81-0.81,1.93-1.313,3.163-1.313h8.859V229.209
					z"/>
				<path style="fill-rule:evenodd;clip-rule:evenodd;fill:#B3B3B3;" d="M222.6,219.054h-17.409v46.795h11.59
					c3.201,0,5.819-2.618,5.819-5.819V219.054z"/>
				<path style="fill-rule:evenodd;clip-rule:evenodd;fill:#CF6E19;" d="M219.884,226.771h-14.693v33.584h9.782
					c2.701,0,4.911-2.21,4.911-4.911V226.771z"/>
				<path style="fill-rule:evenodd;clip-rule:evenodd;fill:#808080;" d="M205.191,260.355v2.716h11.73
					c1.63,0,2.963-1.333,2.963-2.963v-4.664c0,2.701-2.21,4.911-4.911,4.911H205.191z"/>
				<path style="fill-rule:evenodd;clip-rule:evenodd;fill:#CF6E19;" d="M201.734,255.879c0.986,0,1.79-0.804,1.79-1.79
					c0-0.986-0.804-1.79-1.79-1.79c-0.986,0-1.79,0.804-1.79,1.79C199.944,255.074,200.748,255.879,201.734,255.879z"/>
				<path style="fill-rule:evenodd;clip-rule:evenodd;fill:#CF6E19;" d="M198.586,250.693c0.986,0,1.79-0.804,1.79-1.79
					c0-0.986-0.804-1.79-1.79-1.79c-0.986,0-1.79,0.804-1.79,1.79C196.795,249.889,197.6,250.693,198.586,250.693z"/>
				<path style="fill-rule:evenodd;clip-rule:evenodd;fill:#CF6E19;" d="M195.931,242.112c1.734,0,3.148-1.414,3.148-3.148
					c0-1.734-1.414-3.148-3.148-3.148c-1.734,0-3.148,1.414-3.148,3.148C192.783,240.697,194.197,242.112,195.931,242.112z"/>
				<path style="fill-rule:evenodd;clip-rule:evenodd;fill:#F9B234;" d="M210.284,251.804c0.697,0,1.265-0.569,1.265-1.266
					c0-0.697-0.568-1.266-1.265-1.266c-0.697,0-1.266,0.569-1.266,1.266C209.019,251.236,209.587,251.804,210.284,251.804z"/>
				<path style="fill-rule:evenodd;clip-rule:evenodd;fill:#F9B234;" d="M212.476,235.475c1.377,0,2.5-1.123,2.5-2.5
					c0-1.377-1.123-2.5-2.5-2.5c-1.377,0-2.501,1.123-2.501,2.5C209.975,234.352,211.099,235.475,212.476,235.475z"/>
				<path style="fill-rule:evenodd;clip-rule:evenodd;fill:#F9B234;" d="M216.674,230.907c0.442,0,0.802-0.36,0.802-0.803
					c0-0.442-0.36-0.803-0.802-0.803s-0.803,0.36-0.803,0.803C215.871,230.547,216.232,230.907,216.674,230.907z"/>
				<circle style="fill-rule:evenodd;clip-rule:evenodd;fill:#F9B234;" cx="212.059" cy="231.848" r="0.756"/>
				<path style="fill-rule:evenodd;clip-rule:evenodd;fill:#FFD44D;" d="M194.789,238.901c0.467,0,0.849-0.381,0.849-0.849
					c0-0.467-0.381-0.849-0.849-0.849c-0.467,0-0.849,0.382-0.849,0.849C193.94,238.52,194.321,238.901,194.789,238.901z"/>
				<rect x="184.664" y="249.212" style="fill-rule:evenodd;clip-rule:evenodd;fill:#B3B3B3;" width="3.118" height="4.939"/>
				<rect x="184.664" y="224.271" style="fill-rule:evenodd;clip-rule:evenodd;fill:#B3B3B3;" width="3.118" height="4.939"/>
				<path style="fill-rule:evenodd;clip-rule:evenodd;fill:#CF6E19;" d="M197.783,232.605c0.986,0,1.79-0.804,1.79-1.79
					c0-0.986-0.804-1.79-1.79-1.79s-1.79,0.804-1.79,1.79C195.992,231.801,196.797,232.605,197.783,232.605z"/>
				<path style="fill-rule:evenodd;clip-rule:evenodd;fill:#F9B234;" d="M214.421,244.581c0.697,0,1.265-0.569,1.265-1.266
					c0-0.697-0.568-1.266-1.265-1.266c-0.697,0-1.266,0.569-1.266,1.266C213.155,244.012,213.723,244.581,214.421,244.581z"/>
				<path style="fill-rule:evenodd;clip-rule:evenodd;fill:#F9B234;" d="M208.339,244.858c0.697,0,1.266-0.569,1.266-1.266
					c0-0.697-0.569-1.265-1.266-1.265c-0.697,0-1.266,0.568-1.266,1.265C207.073,244.29,207.642,244.858,208.339,244.858z"/>
			</g>
			<g>
				<g>
					<path style="fill-rule:evenodd;clip-rule:evenodd;fill:#FDD34D;" d="M249.929,214.998c11.594,0,21.208,8.47,22.995,19.56
						h-45.99C228.722,223.468,238.336,214.998,249.929,214.998z"/>
					<path style="fill-rule:evenodd;clip-rule:evenodd;fill:#FFEAA6;" d="M249.929,217.035c10.466,0,19.165,7.564,20.93,17.523
						h-41.861C230.764,224.598,239.463,217.035,249.929,217.035z"/>
					<path style="fill-rule:evenodd;clip-rule:evenodd;fill:#FDD34D;" d="M249.929,219.071c9.338,0,17.119,6.659,18.857,15.486
						h-37.714C232.811,225.73,240.592,219.071,249.929,219.071z"/>
					<path style="fill-rule:evenodd;clip-rule:evenodd;fill:#FFEAA6;" d="M249.929,221.108c8.208,0,15.071,5.755,16.776,13.45
						h-33.553C234.859,226.863,241.721,221.108,249.929,221.108z"/>
					<path style="fill-rule:evenodd;clip-rule:evenodd;fill:#FDD34D;" d="M249.929,223.145c7.077,0,13.02,4.853,14.683,11.413
						h-29.366C236.91,227.998,242.852,223.145,249.929,223.145z"/>
					<path style="fill-rule:evenodd;clip-rule:evenodd;fill:#FFEAA6;" d="M249.929,225.181c5.943,0,10.962,3.955,12.57,9.376
						h-25.141C238.967,229.136,243.986,225.181,249.929,225.181z"/>
					<path style="fill-rule:evenodd;clip-rule:evenodd;fill:#FDD34D;" d="M249.929,227.218c4.806,0,8.895,3.061,10.428,7.34h-20.856
						C241.034,230.279,245.124,227.218,249.929,227.218z"/>
					<path style="fill-rule:evenodd;clip-rule:evenodd;fill:#FFEAA6;" d="M249.929,229.255c3.66,0,6.811,2.175,8.232,5.303h-16.464
						C243.118,231.43,246.27,229.255,249.929,229.255z"/>
					<path style="fill-rule:evenodd;clip-rule:evenodd;fill:#FDD34D;" d="M249.929,231.292c2.493,0,4.682,1.303,5.922,3.266h-11.844
						C245.248,232.595,247.436,231.292,249.929,231.292z"/>
					<path style="fill-rule:evenodd;clip-rule:evenodd;fill:#FFEAA6;" d="M249.929,233.328c1.253,0,2.397,0.464,3.27,1.229h-6.54
						C247.533,233.792,248.677,233.328,249.929,233.328z"/>
				</g>
				<g>
					<path style="fill-rule:evenodd;clip-rule:evenodd;fill:#FDD34D;" d="M244.785,223.791c8.253,0,15.504,4.292,19.642,10.767
						h-39.284C229.281,228.083,236.531,223.791,244.785,223.791z"/>
					<path style="fill-rule:evenodd;clip-rule:evenodd;fill:#FFEAA6;" d="M244.785,225.828c7.056,0,13.307,3.438,17.174,8.73
						h-34.348C231.477,229.266,237.729,225.828,244.785,225.828z"/>
					<path style="fill-rule:evenodd;clip-rule:evenodd;fill:#FDD34D;" d="M244.785,227.864c5.829,0,11.052,2.595,14.577,6.693
						h-29.154C233.733,230.46,238.955,227.864,244.785,227.864z"/>
					<path style="fill-rule:evenodd;clip-rule:evenodd;fill:#FFEAA6;" d="M244.785,229.901c4.55,0,8.687,1.769,11.761,4.657h-23.522
						C236.098,231.671,240.234,229.901,244.785,229.901z"/>
					<path style="fill-rule:evenodd;clip-rule:evenodd;fill:#FDD34D;" d="M244.785,231.938c3.158,0,6.09,0.967,8.516,2.62h-17.033
						C238.695,232.905,241.627,231.938,244.785,231.938z"/>
					<path style="fill-rule:evenodd;clip-rule:evenodd;fill:#FFEAA6;" d="M244.785,233.975c1.35,0,2.652,0.204,3.877,0.583h-7.754
						C242.133,234.179,243.435,233.975,244.785,233.975z"/>
				</g>
				<g>
					<path style="fill-rule:evenodd;clip-rule:evenodd;fill:#FDD34D;" d="M268.037,218.562c10.316,0,19.064,6.706,22.127,15.996
						H245.91C248.973,225.268,257.721,218.562,268.037,218.562z"/>
					<path style="fill-rule:evenodd;clip-rule:evenodd;fill:#FFEAA6;" d="M268.037,220.598c9.176,0,16.994,5.814,19.972,13.959
						h-39.943C251.043,226.413,258.861,220.598,268.037,220.598z"/>
					<path style="fill-rule:evenodd;clip-rule:evenodd;fill:#FDD34D;" d="M268.037,222.635c8.032,0,14.911,4.927,17.785,11.923
						h-35.571C253.126,227.562,260.005,222.635,268.037,222.635z"/>
					<path style="fill-rule:evenodd;clip-rule:evenodd;fill:#FFEAA6;" d="M268.037,224.672c6.881,0,12.816,4.045,15.561,9.886
						h-31.121C255.221,228.717,261.156,224.672,268.037,224.672z"/>
					<path style="fill-rule:evenodd;clip-rule:evenodd;fill:#FDD34D;" d="M268.037,226.708c5.72,0,10.698,3.17,13.276,7.849h-26.552
						C257.339,229.879,262.318,226.708,268.037,226.708z"/>
					<path style="fill-rule:evenodd;clip-rule:evenodd;fill:#FFEAA6;" d="M268.037,228.745c4.539,0,8.539,2.307,10.893,5.813
						h-21.786C259.498,231.052,263.498,228.745,268.037,228.745z"/>
					<path style="fill-rule:evenodd;clip-rule:evenodd;fill:#FDD34D;" d="M268.037,230.782c3.32,0,6.299,1.462,8.328,3.776h-16.656
						C261.738,232.243,264.717,230.782,268.037,230.782z"/>
					<path style="fill-rule:evenodd;clip-rule:evenodd;fill:#FFEAA6;" d="M268.037,232.818c1.993,0,3.836,0.646,5.33,1.739h-10.66
						C264.201,233.464,266.044,232.818,268.037,232.818z"/>
				</g>
				<g>
					<path style="fill-rule:evenodd;clip-rule:evenodd;fill:#E6E6E6;" d="M257.679,261.74h-5.597
						c-14.915,0-27.253-11.597-28.443-26.219h34.04V261.74z"/>
					<path style="fill-rule:evenodd;clip-rule:evenodd;fill:#B3B3B3;" d="M223.639,235.521h34.04v-1.412h-34.04
						c-0.247,0-0.449,0.202-0.449,0.449v0.515C223.191,235.32,223.393,235.521,223.639,235.521z"/>
					<path style="fill-rule:evenodd;clip-rule:evenodd;fill:#E6E6E6;" d="M257.679,261.74v4.109h-10.866
						c-1.553,0-2.824-1.271-2.824-2.824v-2.462c2.568,0.765,5.285,1.176,8.093,1.176H257.679z"/>
					<path style="fill-rule:evenodd;clip-rule:evenodd;fill:#B3B3B3;" d="M252.082,261.74c-2.808,0-5.525-0.411-8.093-1.176v1.916
						c2.568,0.765,5.285,1.176,8.093,1.176h5.597v-1.916H252.082z"/>
					<path style="fill-rule:evenodd;clip-rule:evenodd;fill:#B3B3B3;" d="M257.679,261.74h5.597
						c14.915,0,27.252-11.597,28.443-26.219h-34.04V261.74z"/>
					<path style="fill-rule:evenodd;clip-rule:evenodd;fill:#808080;" d="M291.719,235.521h-34.04v-1.412h34.04
						c0.247,0,0.448,0.202,0.448,0.449v0.515C292.167,235.32,291.966,235.521,291.719,235.521z"/>
					<g>
						<path style="fill-rule:evenodd;clip-rule:evenodd;fill:#176E21;" d="M257.679,260.507h13.875
							c0.556-0.17,1.107-0.355,1.648-0.558h-15.523V260.507z"/>
						<path style="fill-rule:evenodd;clip-rule:evenodd;fill:#EC3611;" d="M268.429,239.759c0,0,0.145-1.358,1.528-1.698
							c1.382-0.34,3.565,0.097,4.389-0.704c0.825-0.8,2.28-0.873,2.232,0.024s-1.189,2.037-1.189,2.037l1.504-0.825
							c0,0-0.194,1.067-0.994,1.576s-2.619,0.703-2.619,0.703s0.873,0.145,2.28,1.892c1.407,1.746,1.601,2.934,2.741,2.74
							c1.14-0.194,2.644-0.994,2.644-0.994l-0.509,1.6l0.97-0.17l-1.018,1.358l1.795,0.024l-1.455,0.921l0.97,0.752l-1.14,0.437
							l0.557,0.8l-1.891,0.17l0.921,0.897c0,0-1.795,0.315-3.904-1.989c-2.11-2.304-2.328-3.153-2.328-3.153
							s0.291,1.601,2.013,3.347c1.722,1.746,3.953,2.231,3.953,2.231l-0.849,0.194l1.14,0.339c0,0-1.164,1.189-3.832,0.291
							c-2.668-0.897-5.699-4.39-5.966-5.311c-0.267-0.922-0.534-1.795-0.534-1.795s-0.485,1.795-1.261,2.377
							c-0.776,0.582-2.158,0.048-0.897-1.94c1.261-1.989,2.061-2.91,1.964-3.589c-0.097-0.679-0.303-0.812-0.303-0.812
							S268.126,240.498,268.429,239.759z"/>
						<path style="fill-rule:evenodd;clip-rule:evenodd;fill:#CCCCCC;" d="M268.623,241.917c-0.489,0.033-1.097,0.1-1.433,0.139
							l2.385,0.756c0.065-0.188,0.089-0.354,0.067-0.508c-0.026-0.179-0.059-0.32-0.094-0.431
							C269.548,241.875,269.338,241.869,268.623,241.917z"/>
						<path style="fill-rule:evenodd;clip-rule:evenodd;fill:#FFFFFF;" d="M267.19,242.057c0.336-0.039,0.944-0.106,1.433-0.139
							c0.715-0.049,0.925-0.043,0.925-0.043c-0.098-0.31-0.21-0.382-0.21-0.382s-0.41-0.336-0.694-0.763l-1.707,1.357
							C266.937,242.087,267.035,242.075,267.19,242.057z"/>
						<path style="fill-rule:evenodd;clip-rule:evenodd;fill:#FFFFFF;" d="M270.878,239.589c0.388,0,0.703,0.315,0.703,0.703
							c0,0.388-0.315,0.703-0.703,0.703c-0.388,0-0.703-0.315-0.703-0.703C270.175,239.904,270.49,239.589,270.878,239.589z"/>
						<path style="fill-rule:evenodd;clip-rule:evenodd;fill:#333333;" d="M270.615,240.038c0.169,0,0.306,0.137,0.306,0.306
							c0,0.169-0.137,0.306-0.306,0.306c-0.169,0-0.306-0.137-0.306-0.306C270.309,240.175,270.446,240.038,270.615,240.038z"/>
						<path style="fill-rule:evenodd;clip-rule:evenodd;fill:#1A1A1A;" d="M276.335,252.564c-2.668-0.897-5.699-4.39-5.966-5.311
							c-0.267-0.922-0.534-1.795-0.534-1.795c-0.564,2.898-0.527,4.499,0.127,6.269c0.655,1.77,4.147,3.929,4.147,3.929l2.813,2.134
							l-2.352,1.576l-2.619,0.922l0.952-0.231c1.685-0.609,3.298-1.372,4.822-2.274l0.217-0.32c0,0-0.437-1.067-0.897-1.673
							c-0.461-0.606-2.183-1.819-2.183-1.819l1.867,1.261c0,0,0.897,0.922,2.11,1.746c0.027,0.018,0.054,0.038,0.082,0.058
							c0.487-0.322,0.964-0.658,1.43-1.008c0.047-0.914,0.114-1.815,0.114-1.815s0.849-0.073,2.304-0.558
							c0.219-0.073,0.479-0.213,0.761-0.399c0.676-0.683,1.318-1.4,1.923-2.148l-2.102,1.455l4.147-4.341l-4.268,3.565
							c0,0,0.873-1.043,1.018-1.504c0.146-0.461-0.825-2.28-0.825-2.28s1.091-0.024,1.383,0.461c0.291,0.485,0.17,1.116,0.17,1.116
							s0.364-0.218,0.485-1.504c0.121-1.285-0.922-2.134-0.922-2.134s1.018-0.388,1.503,0.242c0.485,0.631,0.34,1.455,0.34,1.455
							s1.019-1.31,1.019-2.062c0-0.752-1.237-1.261-1.237-1.261s1.067-0.412,1.576,0.121c0.509,0.533,0.291,1.164,0.291,1.164
							s0.582-1.019,0.437-1.892c-0.145-0.873-1.431-1.188-1.431-1.188s1.146-0.473,1.625-0.364c0.479,0.109,1.134,0.362,1.229,0.402
							c-0.487-0.75-0.818-1.645-1.787-1.736c0,0,0.402-0.664,0.727-0.703c0.325-0.039,0.732,0.165,0.779,0.168l-0.641-0.726
							c-0.783-0.886-1.471-0.218-3.315,0c-1.843,0.218-3.517,1.601-4.244,3.226c-0.728,1.625-1.086,2.024-1.086,2.024
							c0.371-0.17,0.62-0.302,0.62-0.302l-0.509,1.6l0.97-0.17l-1.018,1.358l1.795,0.024l-1.455,0.921l0.97,0.752l-1.14,0.437
							l0.557,0.8l-1.891,0.17l0.921,0.897c0,0-1.795,0.315-3.904-1.989c-2.11-2.304-2.328-3.153-2.328-3.153
							s0.291,1.601,2.013,3.347c1.722,1.746,3.953,2.231,3.953,2.231l-0.849,0.194l1.14,0.339
							C280.167,252.273,279.003,253.462,276.335,252.564z"/>
						<path style="fill-rule:evenodd;clip-rule:evenodd;fill:#B50D07;" d="M269.836,245.458c0,0,0.267,0.873,0.534,1.795
							c0.267,0.922,3.298,4.414,5.966,5.311c1.629,0.548,2.698,0.318,3.283,0.056c-3.304,0.01-6.249-2.346-7.23-3.367
							c-1.188-1.237-1.188-2.304-0.849-3.226c0.34-0.922,0.437-3.322,0.437-3.322s-0.364,0.897-0.582,1.843
							c-0.218,0.946-0.897,1.504-1.189,1.067c-0.291-0.437,0.219-2.013,0.219-2.013s-1.965,3.395-2.523,3.614
							c-0.557,0.218-0.674-0.362-0.674-0.362c-0.319,1.189,0.715,1.455,1.347,0.981
							C269.351,247.253,269.836,245.458,269.836,245.458z"/>
						<path style="fill-rule:evenodd;clip-rule:evenodd;fill:#B50D07;" d="M280.782,248.211c-0.158,0.022-0.324,0.034-0.5,0.035
							c-2.886,0.024-5.007-0.242-6.372-2.085c0,0,0.218,0.849,2.328,3.153c2.11,2.304,3.904,1.989,3.904,1.989l-0.921-0.897
							l1.891-0.17l-0.557-0.8l1.14-0.437l-0.97-0.752L280.782,248.211z"/>
						<path style="fill-rule:evenodd;clip-rule:evenodd;fill:#4D4D4D;" d="M280.386,247.301l1.795,0.024l-1.398,0.885
							c2.438-0.336,2.84-2.945,3.478-3.469c0.679-0.558,0.667-0.606,1.952-1.007c1.285-0.4,1.843,0.437,1.843,0.437
							s-0.243-0.922-0.837-1.273c-0.594-0.352-1.419,0.085-1.419,0.085s0.473-0.315,1.055-0.776
							c0.582-0.461,1.928-0.352,1.928-0.352s-0.388-0.194-1.213-0.509c-0.825-0.316-1.722,1.14-3.298,1.964
							c-1.576,0.825-2.377,0.63-2.377,0.63s0.752-0.364,1.892-1.018s2.595-2.449,4.026-2.862c0.303-0.087,0.707-0.114,1.157-0.101
							v-0.395c-0.783-0.886-1.471-0.218-3.315,0c-1.843,0.218-3.517,1.601-4.244,3.226c-0.728,1.625-1.086,2.024-1.086,2.024
							c0.371-0.17,0.62-0.302,0.62-0.302l-0.509,1.6l0.97-0.17L280.386,247.301z"/>
						<path style="fill-rule:evenodd;clip-rule:evenodd;fill:#2B9437;" d="M257.843,256.354c0,0-0.058-0.042-0.164-0.114v3.709
							h1.819C259.498,259.949,258.455,258.359,257.843,256.354z"/>
						<path style="fill-rule:evenodd;clip-rule:evenodd;fill:#072E0B;" d="M257.679,256.24c0.106,0.072,0.164,0.114,0.164,0.114
							c-0.059-0.193-0.114-0.391-0.164-0.591V256.24z"/>
						<path style="fill-rule:evenodd;clip-rule:evenodd;fill:#0F5217;" d="M257.679,251.808c0.046-0.18,0.096-0.361,0.151-0.54
							c-0.051-0.051-0.1-0.1-0.151-0.15V251.808z"/>
						<path style="fill-rule:evenodd;clip-rule:evenodd;fill:#176E21;" d="M257.679,255.763c0.05,0.2,0.105,0.398,0.164,0.591
							c0.612,2.005,1.655,3.595,1.655,3.595h1.795c0,0-0.109-1.528-0.074-3.382c0.031-1.639,0.175-3.532,0.608-4.852
							c0.078-0.238,0.152-0.482,0.222-0.726c0.752-2.644,0.964-5.506-0.368-5.24c-1.21,0.242-3.023,2.797-3.851,5.519
							c-0.054,0.179-0.105,0.36-0.151,0.54V255.763z"/>
						<path style="fill-rule:evenodd;clip-rule:evenodd;fill:#072E0B;" d="M261.218,256.566c0,0,0.511-1.117,2.16-3.203
							c0.127-0.16,0.265-0.302,0.412-0.426c0.007-0.006,0.014-0.012,0.021-0.018c0.079-0.07,0.368-0.37,0.682-1.205
							c0.37-0.982,2.134-0.097,3.201-0.825c1.067-0.728-0.145-1.504-1.892-1.892c-1.746-0.388-3.755,1.99-3.755,1.99
							c-0.07,0.245-0.144,0.488-0.222,0.726C261.394,253.034,261.249,254.928,261.218,256.566z"/>
						<path style="fill-rule:evenodd;clip-rule:evenodd;fill:#2B9437;" d="M263.378,253.364c-1.649,2.086-2.16,3.203-2.16,3.203
							c-0.035,1.854,0.074,3.382,0.074,3.382s0.922-0.425,2.231-1.928c1.31-1.504,2.571-3.105,3.686-2.91
							c1.116,0.194,5.141,1.213,3.25-0.776c-1.739-1.829-4.873-2.878-6.648-1.414c-0.014,0.012-0.021,0.018-0.021,0.018
							C263.643,253.062,263.505,253.203,263.378,253.364z"/>
						<path style="fill-rule:evenodd;clip-rule:evenodd;fill:#B50D07;" d="M257.679,243.563c0.541,0.534,1.055,1.452,1.528,1.531
							c0.727,0.121,0.824-1.673,0.436-2.498c-0.388-0.825-1.237-1.14-1.237-1.14l1.116,0.34c0,0,0.267-0.679,1.043-0.679
							c0.776,0,1.043,0.315,1.043,0.315s0.267-0.8-0.825-1.285c-1.091-0.485-2.547-0.073-2.547-0.073s-0.461-0.728-0.073-1.188
							c0.388-0.461,0.655-0.97,0.655-0.97s-0.634-0.045-1.14,0.257V243.563z"/>
					</g>
					<g>
						<path style="fill-rule:evenodd;clip-rule:evenodd;fill:#20852C;" d="M250.5,260.507h7.178v-0.558H250.5
							c-0.153,0-0.279,0.126-0.279,0.279l0,0C250.221,260.381,250.347,260.507,250.5,260.507z"/>
						<path style="fill-rule:evenodd;clip-rule:evenodd;fill:#3CB44A;" d="M257.679,256.24c-0.456-0.31-1.799-1.172-3.177-1.566
							c-1.698-0.485-2.522-1.31-3.735,0.388c-1.213,1.698-0.825,3.735,0.679,3.25c1.504-0.485-0.242-2.619,2.231-1.261
							c2.473,1.358,3.88,2.899,3.88,2.899h0.121V256.24z"/>
						<path style="fill-rule:evenodd;clip-rule:evenodd;fill:#2B9437;" d="M254.502,254.673c1.378,0.394,2.721,1.256,3.177,1.566
							v-0.477c-0.096-0.386-0.172-0.782-0.218-1.181c0,0-0.687-0.774-1.586-1.624c0,0-3.943-0.758-5.544,1.328
							c-1.601,2.086-0.922,3.492-1.892,3.929c-0.97,0.436-1.212,2.231,1.649,1.358c2.862-0.873,3.59-2.522,3.59-2.522
							c-2.474-1.358-0.728,0.776-2.231,1.261c-1.504,0.485-1.892-1.552-0.679-3.25C251.98,253.364,252.804,254.188,254.502,254.673z
							"/>
						<path style="fill-rule:evenodd;clip-rule:evenodd;fill:#0F5217;" d="M255.874,252.958c0.899,0.85,1.586,1.624,1.586,1.624
							c-0.065-0.553-0.073-1.111,0-1.655c0.05-0.37,0.124-0.745,0.218-1.119v-0.69c-6.384-6.354-7.454-2.985-8.61-2.023
							c-1.164,0.97-1.504,3.541-0.825,4.414c0.679,0.873,2.813-3.007,4.462-2.716C253.58,250.947,254.862,252.001,255.874,252.958z"
							/>
						<path style="fill-rule:evenodd;clip-rule:evenodd;fill:#20852C;" d="M257.461,252.927c-0.073,0.544-0.065,1.102,0,1.655
							c0.046,0.399,0.122,0.795,0.218,1.181v-3.955C257.585,252.182,257.51,252.557,257.461,252.927z"/>
						<path style="fill-rule:evenodd;clip-rule:evenodd;fill:#EC3611;" d="M255.544,242.304c-0.072,0.994,0.558,2.813,0.558,2.813
							s-0.194-1.528,0.679-1.892c0.306-0.127,0.606,0.049,0.897,0.337v-5.391c-0.135,0.081-0.262,0.187-0.364,0.325
							c-0.485,0.655-0.703,1.795-0.703,1.795s-0.437-0.655-0.922-0.873c-0.485-0.218-1.14-0.291-1.14-0.291l1.115,1.213l0.145,0.388
							c0,0-0.388-0.073-1.067-0.024c-0.679,0.048-1.358,1.601-1.358,1.601H255.544z"/>
						<path style="fill-rule:evenodd;clip-rule:evenodd;fill:#B50D07;" d="M257.013,241.515c0.274,0,0.498-0.166,0.498-0.369
							c0-0.203-0.224-0.369-0.498-0.369c-0.274,0-0.498,0.166-0.498,0.369C256.515,241.348,256.738,241.515,257.013,241.515z"/>
					</g>
					<path style="fill-rule:evenodd;clip-rule:evenodd;fill:#B3B3B3;" d="M257.679,261.74v4.109h10.866
						c1.553,0,2.824-1.271,2.824-2.824v-2.462c-2.568,0.765-5.285,1.176-8.093,1.176H257.679z"/>
					<path style="fill-rule:evenodd;clip-rule:evenodd;fill:#808080;" d="M263.276,261.74c2.808,0,5.525-0.411,8.093-1.176v1.916
						c-2.568,0.765-5.285,1.176-8.093,1.176h-5.597v-1.916H263.276z"/>
				</g>
				<g>
					<path style="fill-rule:evenodd;clip-rule:evenodd;fill:#D1A336;" d="M257.679,216.318c7.78,2.745,13.665,9.505,15.168,17.791
						h-15.168V216.318z"/>
					<path style="fill-rule:evenodd;clip-rule:evenodd;fill:#FFEAA6;" d="M257.679,218.492c6.65,2.605,11.669,8.463,13.096,15.617
						h-13.096V218.492z"/>
					<path style="fill-rule:evenodd;clip-rule:evenodd;fill:#FDD34D;" d="M257.679,220.698c5.52,2.435,9.677,7.392,11.013,13.411
						h-11.013V220.698z"/>
					<path style="fill-rule:evenodd;clip-rule:evenodd;fill:#FFEAA6;" d="M257.679,222.952c4.392,2.223,7.699,6.277,8.92,11.157
						h-8.92V222.952z"/>
					<path style="fill-rule:evenodd;clip-rule:evenodd;fill:#FDD34D;" d="M257.679,225.275c3.268,1.95,5.74,5.096,6.812,8.834
						h-6.812V225.275z"/>
					<path style="fill-rule:evenodd;clip-rule:evenodd;fill:#FFEAA6;" d="M257.679,227.717c2.155,1.582,3.809,3.807,4.678,6.392
						h-4.678V227.717z"/>
					<path style="fill-rule:evenodd;clip-rule:evenodd;fill:#FDD34D;" d="M257.679,230.382c1.071,1.05,1.93,2.316,2.506,3.727
						h-2.506V230.382z"/>
					<path style="fill-rule:evenodd;clip-rule:evenodd;fill:#FFEAA6;" d="M257.679,233.641c0.092,0.153,0.18,0.309,0.263,0.468
						h-0.263V233.641z"/>
				</g>
				<g>
					<path style="fill-rule:evenodd;clip-rule:evenodd;fill:#D1A336;" d="M268.037,218.562c10.149,0,18.781,6.491,21.974,15.547
						h-32.332v-13.123C260.799,219.435,264.316,218.562,268.037,218.562z"/>
					<path style="fill-rule:evenodd;clip-rule:evenodd;fill:#E6C68A;" d="M268.037,220.598c9.007,0,16.705,5.602,19.801,13.511
						h-30.159v-10.82C260.744,221.576,264.276,220.598,268.037,220.598z"/>
					<path style="fill-rule:evenodd;clip-rule:evenodd;fill:#D1A336;" d="M268.037,222.635c7.859,0,14.614,4.717,17.594,11.474
						h-27.952v-8.445C260.668,223.747,264.222,222.635,268.037,222.635z"/>
					<path style="fill-rule:evenodd;clip-rule:evenodd;fill:#E6C68A;" d="M268.037,224.672c6.703,0,12.508,3.839,15.341,9.437
						h-25.699v-5.965C260.559,225.965,264.147,224.672,268.037,224.672z"/>
					<path style="fill-rule:evenodd;clip-rule:evenodd;fill:#D1A336;" d="M268.037,226.708c5.535,0,10.375,2.969,13.018,7.401
						h-23.376v-3.305C260.388,228.264,264.03,226.708,268.037,226.708z"/>
					<path style="fill-rule:evenodd;clip-rule:evenodd;fill:#E6C68A;" d="M268.037,228.745c4.343,0,8.192,2.112,10.578,5.364
						h-20.936v-0.291C260.078,230.732,263.825,228.745,268.037,228.745z"/>
					<path style="fill-rule:evenodd;clip-rule:evenodd;fill:#D1A336;" d="M268.037,230.782c3.1,0,5.902,1.275,7.913,3.327h-15.825
						C262.135,232.056,264.937,230.782,268.037,230.782z"/>
					<path style="fill-rule:evenodd;clip-rule:evenodd;fill:#E6C68A;" d="M268.037,232.818c1.703,0,3.296,0.472,4.656,1.291h-9.311
						C264.741,233.29,266.334,232.818,268.037,232.818z"/>
				</g>
			</g>
			<path style="fill-rule:evenodd;clip-rule:evenodd;fill:#1A1A1A;" d="M342.291,284.515H114.302c-2.567,0-4.666,2.1-4.666,4.667
				l0,0c0,2.566,2.101,4.667,4.666,4.667h20.88c2.567,0,4.667,2.1,4.667,4.666c0,2.567-2.1,4.667-4.667,4.667h-16.618
				c-2.567,0-4.667,2.1-4.667,4.666l0,0c0,2.567,2.1,4.667,4.667,4.667h90.312c2.564,0,21.528,0,24.092,0h87.096
				c2.566,0,4.666-2.1,4.666-4.667l0,0c0-2.566-2.1-4.666-4.666-4.666h-27.617c-2.566,0-4.666-2.1-4.666-4.667
				c0-2.566,2.1-4.666,4.666-4.666h49.843c2.566,0,4.667-2.1,4.667-4.667l0,0C346.957,286.615,344.858,284.515,342.291,284.515z"/>
			<path style="fill-rule:evenodd;clip-rule:evenodd;fill:#1A1A1A;" d="M138.406,303.182h227.989c2.567,0,4.667,2.1,4.667,4.666l0,0
				c0,2.567-2.1,4.667-4.667,4.667h-20.88c-2.566,0-4.666,2.1-4.666,4.666c0,2.567,2.1,4.667,4.666,4.667h16.619
				c2.566,0,4.667,2.1,4.667,4.667l0,0c0,2.566-2.1,4.666-4.667,4.666h-90.313c-2.564,0-21.528,0-24.092,0h-87.096
				c-2.566,0-4.667-2.1-4.667-4.666l0,0c0-2.567,2.1-4.667,4.667-4.667h27.617c2.566,0,4.666-2.1,4.666-4.667
				c0-2.566-2.1-4.666-4.666-4.666h-49.843c-2.566,0-4.667-2.1-4.667-4.667l0,0C133.739,305.282,135.839,303.182,138.406,303.182z"
				/>
		</g>
	</g>
</g>
</svg>
